# xmcd CD database file
#
# Track frame offsets:
#	182
#	9802
#	30355
#	41345
#	51860
#	65497
#	81140
#	91682
#	109840
#	118047
#	133765
#	147717
#	161325
#	172952
#	190337
#	209940
#	225072
#	241105
#	248457
#	261757
#
# Disc length: 3611 seconds
#
# Revision: 1
# Processed by: cddbd v1.5PL3 Copyright (c) Steve Scherf et al.
# Submitted via: CDex 1.50beta10
#
DISCID=fd0e1914
DTITLE=Carol Kidd - The Best Of Carol Kidd Volume Two
DYEAR=1995
DGENRE=Blues
TTITLE0=New York on Sunday
TTITLE1=When I dream
TTITLE2=Sometimes (not often)
TTITLE3=I'm all smiles
TTITLE4=Bad, Bad Leroy Brown
TTITLE5=Ain't necessarily so
TTITLE6=I could have told you so
TTITLE7=I'm a fool to want you
TTITLE8=Starting tomorrow
TTITLE9=I'll guess I'll have to change my plan
TTITLE10=I fall in love too easily
TTITLE11=Round Midnight
TTITLE12=It isn't so bad
TTITLE13=Don't go to strangers
TTITLE14=Where are you
TTITLE15=The more I see you - I've grown accustomed to your face
TTITLE16=Trouble is a man
TTITLE17=Bidin' my time
TTITLE18=Dat dere
TTITLE19=Please don't talk about me when I'm gone
EXTD=YEAR: 1995
EXTT0=
EXTT1=
EXTT2=
EXTT3=
EXTT4=
EXTT5=
EXTT6=
EXTT7=
EXTT8=
EXTT9=
EXTT10=
EXTT11=
EXTT12=
EXTT13=
EXTT14=
EXTT15=
EXTT16=
EXTT17=
EXTT18=
EXTT19=
PLAYORDER=
